<svg width="42" height="45" viewBox="0 0 42 45" fill="none" xmlns="http://www.w3.org/2000/svg">
<path d="M13.3983 21.5024C10.4674 21.5024 8.26246 23.4385 7.45578 26.2619V16.1783H5.54663V35.5387H7.45578V31.102C8.26246 33.9254 10.4674 35.8614 13.3983 35.8614C17.2435 35.8614 20.1476 32.7691 20.1476 28.6819C20.1476 24.5947 17.2435 21.5024 13.3983 21.5024ZM12.8068 32.5809C9.74138 32.5809 7.45578 30.8869 7.45578 28.6819C7.45578 26.477 9.74138 24.783 12.8068 24.783C15.8722 24.783 18.1578 26.477 18.1578 28.6819C18.1578 30.8869 15.8722 32.5809 12.8068 32.5809Z" fill="black"/>
<path d="M28.7282 21.5024C31.6592 21.5024 33.8641 23.4385 34.6708 26.2619V16.1783H36.58V35.5387H34.6708V31.102C33.8641 33.9254 31.6592 35.8614 28.7282 35.8614C24.8831 35.8614 21.979 32.7691 21.979 28.6819C21.979 24.5947 24.8831 21.5024 28.7282 21.5024ZM29.3198 32.5809C32.3852 32.5809 34.6708 30.8869 34.6708 28.6819C34.6708 26.477 32.3852 24.783 29.3198 24.783C26.2544 24.783 23.9688 26.477 23.9688 28.6819C23.9688 30.8869 26.2544 32.5809 29.3198 32.5809Z" fill="black"/>
<path fill-rule="evenodd" clip-rule="evenodd" d="M7.45568 16.1783V26.2619C7.51134 26.0671 7.57366 25.8765 7.64241 25.6904C8.5701 23.1805 10.6695 21.5024 13.3982 21.5024C17.2434 21.5024 20.1475 24.5947 20.1475 28.6819C20.1475 32.7691 17.2434 35.8614 13.3982 35.8614C10.6695 35.8614 8.5701 34.1833 7.64241 31.6734C7.57366 31.4874 7.51134 31.2968 7.45568 31.102V35.5387H5.54653V16.1783H7.45568ZM7.64241 32.1714V35.7254H5.3598V15.9916H7.64241V25.1924C8.66809 22.8599 10.7413 21.3157 13.3982 21.3157C17.3573 21.3157 20.3342 24.5027 20.3342 28.6819C20.3342 32.8611 17.3573 36.0481 13.3982 36.0481C10.7413 36.0481 8.66809 34.504 7.64241 32.1714ZM9.09199 31.3076C10.0095 31.9795 11.3068 32.3941 12.8067 32.3941C14.3065 32.3941 15.6039 31.9795 16.5214 31.3076C17.4374 30.6367 17.9709 29.714 17.9709 28.6819C17.9709 27.6498 17.4374 26.7271 16.5214 26.0562C15.6039 25.3843 14.3065 24.9697 12.8067 24.9697C11.3068 24.9697 10.0095 25.3843 9.09199 26.0562C8.17595 26.7271 7.64241 27.6498 7.64241 28.6819C7.64241 29.714 8.17595 30.6367 9.09199 31.3076ZM7.45568 28.6819C7.45568 30.8868 9.74128 32.5809 12.8067 32.5809C15.8721 32.5809 18.1577 30.8868 18.1577 28.6819C18.1577 26.477 15.8721 24.783 12.8067 24.783C9.74128 24.783 7.45568 26.477 7.45568 28.6819Z" fill="black"/>
<path fill-rule="evenodd" clip-rule="evenodd" d="M39.9791 42.5272V21C39.9791 10.5181 31.4819 2.02092 21 2.02092C10.5181 2.02092 2.02092 10.5181 2.02092 21V42.5272H39.9791ZM21 0C9.40202 0 0 9.40202 0 21V44.5481H42V21C42 9.40202 32.598 0 21 0Z" fill="black"/>
</svg>
