<svg width="586" height="202" viewBox="0 0 586 202" fill="none" xmlns="http://www.w3.org/2000/svg">
<path d="M79.9925 56.9804C50.8259 56.9804 28.8841 76.2463 20.8566 104.343V3.99892H1.85822V196.659H20.8566V152.507C28.8841 180.604 50.8259 199.87 79.9925 199.87C118.257 199.87 147.156 169.098 147.156 128.425C147.156 87.7524 118.257 56.9804 79.9925 56.9804ZM74.1056 167.225C43.6012 167.225 20.8566 150.367 20.8566 128.425C20.8566 106.483 43.6012 89.6255 74.1056 89.6255C104.61 89.6255 127.355 106.483 127.355 128.425C127.355 150.367 104.61 167.225 74.1056 167.225Z" fill="black"/>
<path d="M174.846 196.659H193.845V3.99892H174.846V196.659Z" fill="black"/>
<path d="M238.832 38.2495C250.071 38.2495 258.633 30.222 258.633 20.0539C258.633 9.88575 250.071 1.85825 238.832 1.85825C227.326 1.85825 218.763 9.88575 218.763 20.0539C218.763 30.222 227.326 38.2495 238.832 38.2495ZM229.199 196.659H248.198V60.1913H229.199V196.659Z" fill="black"/>
<path d="M359.546 56.9804C331.985 56.9804 311.648 71.965 302.55 98.7233V60.1913H283.552V196.659H302.55V121.2C302.55 102.202 321.549 89.6255 349.645 89.6255C376.938 89.6255 394.599 101.934 394.599 120.665V196.659H413.597V110.765C413.597 78.387 391.923 56.9804 359.546 56.9804Z" fill="black"/>
<path d="M565.143 3.99892V104.343C557.116 76.2463 535.174 56.9804 506.275 56.9804C467.743 56.9804 439.112 87.7524 439.112 128.425C439.112 169.098 467.743 199.87 506.275 199.87C535.174 199.87 557.116 180.604 565.143 152.507V196.659H584.142V3.99892H565.143ZM512.162 167.225C481.658 167.225 458.913 150.367 458.913 128.425C458.913 106.483 481.658 89.6255 512.162 89.6255C542.399 89.6255 565.143 106.483 565.143 128.425C565.143 150.367 542.399 167.225 512.162 167.225Z" fill="black"/>
<path fill-rule="evenodd" clip-rule="evenodd" d="M20.8566 3.99889V104.342C21.4105 102.404 22.0306 100.507 22.7148 98.6562C31.9464 73.6793 52.8384 56.9803 79.9925 56.9803C118.257 56.9803 147.156 87.7524 147.156 128.425C147.156 169.098 118.257 199.87 79.9925 199.87C52.8384 199.87 31.9464 183.171 22.7148 158.194C22.0306 156.343 21.4105 154.446 20.8566 152.507V196.659H1.85822V3.99889H20.8566ZM22.7148 163.15V198.517H0V2.14067H22.7148V93.6998C32.9216 70.4884 53.5523 55.1221 79.9925 55.1221C119.39 55.1221 149.014 86.8365 149.014 128.425C149.014 170.013 119.39 201.728 79.9925 201.728C53.5523 201.728 32.9216 186.362 22.7148 163.15ZM37.1399 154.554C46.2698 161.24 59.1803 165.366 74.1056 165.366C89.0309 165.366 101.941 161.24 111.071 154.554C120.187 147.877 125.496 138.696 125.496 128.425C125.496 118.154 120.187 108.972 111.071 102.296C101.941 95.6095 89.0309 91.4837 74.1056 91.4837C59.1803 91.4837 46.2698 95.6095 37.1399 102.296C28.0242 108.972 22.7148 118.154 22.7148 128.425C22.7148 138.696 28.0242 147.877 37.1399 154.554ZM172.988 198.517V2.14067H195.703V198.517H172.988ZM193.845 196.659H174.846V3.99889H193.845V196.659ZM227.341 198.517V58.3331H250.056V198.517H227.341ZM260.492 20.0539C260.492 31.3829 250.957 40.1077 238.832 40.1077C226.457 40.1077 216.905 31.3986 216.905 20.0539C216.905 8.70914 226.457 0 238.832 0C250.957 0 260.492 8.72484 260.492 20.0539ZM248.198 196.659H229.199V60.1913H248.198V196.659ZM302.55 60.1913V98.7233C303.125 97.0325 303.745 95.3887 304.409 93.7927C314.247 70.1311 333.726 56.9803 359.546 56.9803C391.923 56.9803 413.597 78.387 413.597 110.765V196.659H394.599V120.665C394.599 101.934 376.938 89.6255 349.645 89.6255C321.549 89.6255 302.55 102.202 302.55 121.2V196.659H283.552V60.1913H302.55ZM304.409 89.2531C309.008 79.7219 315.284 71.9981 323.025 66.3191C333.047 58.9674 345.418 55.1221 359.546 55.1221C376.152 55.1221 390.16 60.6195 400.022 70.4122C409.886 80.2064 415.456 94.1507 415.456 110.765V198.517H392.741V120.665C392.741 111.964 388.672 104.753 381.299 99.649C373.873 94.5077 363.04 91.4837 349.645 91.4837C335.847 91.4837 324.465 94.5756 316.594 99.8336C308.771 105.059 304.409 112.409 304.409 121.2V198.517H281.694V58.3331H304.409V89.2531ZM563.285 2.14067H586V198.517H563.285V163.151C553.083 186.359 532.484 201.728 506.275 201.728C466.605 201.728 437.254 170.008 437.254 128.425C437.254 86.8415 466.605 55.1221 506.275 55.1221C532.484 55.1221 553.083 70.4913 563.285 93.6988V2.14067ZM565.143 104.342C564.589 102.404 563.969 100.507 563.285 98.6559C554.055 73.6792 533.18 56.9803 506.275 56.9803C467.743 56.9803 439.112 87.7524 439.112 128.425C439.112 169.098 467.743 199.87 506.275 199.87C533.18 199.87 554.055 183.171 563.285 158.194C563.969 156.343 564.589 154.446 565.143 152.507V196.659H584.142V3.99889H565.143V104.342ZM475.196 154.554C484.326 161.24 497.237 165.366 512.162 165.366C526.95 165.366 539.793 161.242 548.891 154.556C557.975 147.879 563.285 138.696 563.285 128.425C563.285 118.154 557.975 108.971 548.891 102.294C539.793 95.6078 526.95 91.4837 512.162 91.4837C497.237 91.4837 484.326 95.6095 475.196 102.296C466.081 108.972 460.771 118.154 460.771 128.425C460.771 138.696 466.081 147.877 475.196 154.554ZM20.8566 128.425C20.8566 150.367 43.6012 167.225 74.1056 167.225C104.61 167.225 127.355 150.367 127.355 128.425C127.355 106.483 104.61 89.6255 74.1056 89.6255C43.6012 89.6255 20.8566 106.483 20.8566 128.425ZM258.633 20.0539C258.633 30.222 250.071 38.2495 238.832 38.2495C227.326 38.2495 218.763 30.222 218.763 20.0539C218.763 9.88572 227.326 1.85822 238.832 1.85822C250.071 1.85822 258.633 9.88572 258.633 20.0539ZM458.913 128.425C458.913 150.367 481.657 167.225 512.162 167.225C542.399 167.225 565.143 150.367 565.143 128.425C565.143 106.483 542.399 89.6255 512.162 89.6255C481.657 89.6255 458.913 106.483 458.913 128.425Z" fill="black"/>
</svg>
