<svg width="246" height="246" viewBox="0 0 246 246" fill="none" xmlns="http://www.w3.org/2000/svg">
<path d="M78.8452 128.981C61.8207 128.981 49.0133 140.226 44.3276 156.626V98.0557H33.2383V210.511H44.3276V184.74C49.0133 201.14 61.8207 212.385 78.8452 212.385C101.18 212.385 118.048 194.424 118.048 170.683C118.048 146.943 101.18 128.981 78.8452 128.981ZM75.4091 193.33C57.6036 193.33 44.3276 183.491 44.3276 170.683C44.3276 157.876 57.6036 148.036 75.4091 148.036C93.2145 148.036 106.491 157.876 106.491 170.683C106.491 183.491 93.2145 193.33 75.4091 193.33Z" fill="black"/>
<path d="M167.889 128.981C184.914 128.981 197.721 140.226 202.407 156.626V98.0557H213.496V210.511H202.407V184.74C197.721 201.14 184.914 212.385 167.889 212.385C145.554 212.385 128.686 194.424 128.686 170.683C128.686 146.943 145.554 128.981 167.889 128.981ZM171.325 193.33C189.131 193.33 202.407 183.491 202.407 170.683C202.407 157.876 189.131 148.036 171.325 148.036C153.52 148.036 140.244 157.876 140.244 170.683C140.244 183.491 153.52 193.33 171.325 193.33Z" fill="black"/>
<path fill-rule="evenodd" clip-rule="evenodd" d="M44.3273 98.0556V156.626C44.6506 155.495 45.0126 154.388 45.412 153.307C50.8004 138.728 62.9951 128.981 78.8449 128.981C101.18 128.981 118.048 146.942 118.048 170.683C118.048 194.424 101.18 212.385 78.8449 212.385C62.9951 212.385 50.8004 202.638 45.412 188.059C45.0126 186.979 44.6506 185.872 44.3273 184.74V210.511H33.238V98.0556H44.3273ZM45.412 190.952V211.596H32.1533V96.9709H45.412V150.414C51.3697 136.865 63.4118 127.896 78.8449 127.896C101.841 127.896 119.133 146.408 119.133 170.683C119.133 194.958 101.841 213.47 78.8449 213.47C63.4118 213.47 51.3697 204.501 45.412 190.952ZM53.8319 185.934C59.161 189.837 66.6969 192.246 75.4088 192.246C84.1206 192.246 91.6565 189.837 96.9856 185.934C102.306 182.037 105.406 176.678 105.406 170.683C105.406 164.688 102.306 159.329 96.9856 155.432C91.6565 151.529 84.1206 149.12 75.4088 149.12C66.6969 149.12 59.161 151.529 53.8319 155.432C48.511 159.329 45.412 164.688 45.412 170.683C45.412 176.678 48.511 182.037 53.8319 185.934ZM44.3273 170.683C44.3273 183.49 57.6033 193.33 75.4088 193.33C93.2142 193.33 106.49 183.49 106.49 170.683C106.49 157.876 93.2142 148.036 75.4088 148.036C57.6033 148.036 44.3273 157.876 44.3273 170.683Z" fill="black"/>
<path fill-rule="evenodd" clip-rule="evenodd" d="M233.241 233.241V123C233.241 62.1158 183.884 12.7593 123 12.7593C62.1158 12.7593 12.7593 62.1158 12.7593 123V233.241H233.241ZM123 0C55.069 0 0 55.069 0 123V246H246V123C246 55.069 190.931 0 123 0Z" fill="black"/>
</svg>
